<mxfile host="app.diagrams.net" modified="2024-08-29T00:49:37.895Z" agent="Mozilla/5.0 (Windows NT 10.0; Win64; x64) AppleWebKit/537.36 (KHTML, like Gecko) Chrome/128.0.0.0 Safari/537.36 Edg/128.0.0.0" etag="mvhVB4L6ydEwUjAKu3IQ" version="24.6.4" type="device">
  <diagram name="Page-1" id="c9db0220-8083-56f3-ca83-edcdcd058819">
    <mxGraphModel dx="1412" dy="777" grid="0" gridSize="10" guides="1" tooltips="1" connect="1" arrows="1" fold="1" page="1" pageScale="1.5" pageWidth="826" pageHeight="1169" background="#000000" math="0" shadow="0">
      <root>
        <mxCell id="0" style=";html=1;" />
        <mxCell id="1" style=";html=1;" parent="0" />
        <mxCell id="3d76a8aef4d5c911-1" value="" style="html=1;shadow=0;dashed=0;shape=mxgraph.bootstrap.rect;fillColor=#222222;strokeColor=none;whiteSpace=wrap;rounded=0;fontSize=12;fontColor=#000000;align=center;" parent="1" vertex="1">
          <mxGeometry x="40" y="70" width="1150" height="40" as="geometry" />
        </mxCell>
        <mxCell id="3d76a8aef4d5c911-2" value="Summary" style="html=1;shadow=0;dashed=0;fillColor=none;strokeColor=none;shape=mxgraph.bootstrap.rect;fontColor=#999999;fontSize=12;whiteSpace=wrap;" parent="3d76a8aef4d5c911-1" vertex="1">
          <mxGeometry width="115" height="40" as="geometry" />
        </mxCell>
        <mxCell id="3d76a8aef4d5c911-3" value="Edit Punches" style="html=1;shadow=0;dashed=0;shape=mxgraph.bootstrap.rect;fillColor=none;strokeColor=none;fontColor=#999999;spacingRight=30;whiteSpace=wrap;" parent="3d76a8aef4d5c911-1" vertex="1">
          <mxGeometry x="115" width="129.375" height="40" as="geometry" />
        </mxCell>
        <mxCell id="3d76a8aef4d5c911-4" value="84" style="html=1;shadow=0;dashed=0;shape=mxgraph.bootstrap.rrect;rSize=8;fillColor=#ff0000;strokeColor=none;fontColor=#ffffff;whiteSpace=wrap;fillOpacity=0;noLabel=1;" parent="3d76a8aef4d5c911-3" vertex="1">
          <mxGeometry x="1" y="0.5" width="25" height="16" relative="1" as="geometry">
            <mxPoint x="-30" y="-8" as="offset" />
          </mxGeometry>
        </mxCell>
        <mxCell id="3d76a8aef4d5c911-5" value="Employees" style="html=1;shadow=0;dashed=0;fillColor=none;strokeColor=none;shape=mxgraph.bootstrap.rect;fontColor=#999999;spacingRight=30;whiteSpace=wrap;" parent="3d76a8aef4d5c911-1" vertex="1">
          <mxGeometry x="244.375" width="158.125" height="40" as="geometry" />
        </mxCell>
        <mxCell id="3d76a8aef4d5c911-6" value="42" style="html=1;shadow=0;dashed=0;shape=mxgraph.bootstrap.rrect;rSize=8;fillColor=#ff0000;strokeColor=none;fontColor=#ffffff;whiteSpace=wrap;movable=1;resizable=1;rotatable=1;deletable=1;editable=1;locked=0;connectable=1;noLabel=1;fillOpacity=0;strokeOpacity=100;" parent="3d76a8aef4d5c911-5" vertex="1">
          <mxGeometry x="1" y="0.5" width="25" height="16" relative="1" as="geometry">
            <mxPoint x="-30" y="-8" as="offset" />
          </mxGeometry>
        </mxCell>
        <mxCell id="3d76a8aef4d5c911-7" value="Requests" style="html=1;shadow=0;dashed=0;fillColor=none;strokeColor=none;shape=mxgraph.bootstrap.rect;fontColor=#ff0000;whiteSpace=wrap;fontStyle=5;fontSize=14;" parent="3d76a8aef4d5c911-1" vertex="1">
          <mxGeometry x="402.5" width="115" height="40" as="geometry" />
        </mxCell>
        <mxCell id="BayDQLT54bfVyeQ3MigJ-2" value="42" style="html=1;shadow=0;dashed=0;shape=mxgraph.bootstrap.rrect;rSize=8;fillColor=#ff0000;strokeColor=none;fontColor=#ffffff;whiteSpace=wrap;movable=1;resizable=1;rotatable=1;deletable=1;editable=1;locked=0;connectable=1;" parent="3d76a8aef4d5c911-1" vertex="1">
          <mxGeometry x="510" y="12" width="25" height="16" as="geometry" />
        </mxCell>
        <mxCell id="3d76a8aef4d5c911-11" value="" style="html=1;shadow=0;dashed=0;shape=mxgraph.bootstrap.rrect;rSize=5;strokeColor=#dddddd;rounded=0;fontSize=12;align=center;" parent="1" vertex="1">
          <mxGeometry x="860" y="150" width="330" height="400" as="geometry" />
        </mxCell>
        <mxCell id="3d76a8aef4d5c911-12" value="320x200" style="shape=rect;fontSize=24;fillColor=#f0f0f0;strokeColor=none;fontColor=#999999;whiteSpace=wrap;" parent="3d76a8aef4d5c911-11" vertex="1">
          <mxGeometry x="5" y="5" width="320" height="200" as="geometry" />
        </mxCell>
        <mxCell id="3d76a8aef4d5c911-13" value="Thumbnail label" style="html=1;shadow=0;dashed=0;shape=mxgraph.bootstrap.anchor;fontSize=26;align=left;whiteSpace=wrap;" parent="3d76a8aef4d5c911-11" vertex="1">
          <mxGeometry x="15" y="220" width="300" height="40" as="geometry" />
        </mxCell>
        <mxCell id="3d76a8aef4d5c911-14" value="Cras justo odio, dapibus ac facilisis in, egestas eget quam. Donec id elit non mi porta gravida at eget metus. Nullam id dolor id nibh ultricies vehicula ut id elit." style="html=1;shadow=0;dashed=0;shape=mxgraph.bootstrap.anchor;strokeColor=#dddddd;whiteSpace=wrap;align=left;verticalAlign=top;fontSize=14;whiteSpace=wrap;" parent="3d76a8aef4d5c911-11" vertex="1">
          <mxGeometry x="15" y="260" width="300" height="80" as="geometry" />
        </mxCell>
        <mxCell id="3d76a8aef4d5c911-15" value="Button" style="html=1;shadow=0;dashed=0;shape=mxgraph.bootstrap.rrect;rSize=5;fontSize=16;fillColor=#3D8BCD;strokeColor=none;fontColor=#ffffff;whiteSpace=wrap;" parent="3d76a8aef4d5c911-11" vertex="1">
          <mxGeometry y="1" width="80" height="40" relative="1" as="geometry">
            <mxPoint x="15" y="-60" as="offset" />
          </mxGeometry>
        </mxCell>
        <mxCell id="3d76a8aef4d5c911-16" value="Button" style="html=1;shadow=0;dashed=0;shape=mxgraph.bootstrap.rrect;rSize=5;fontSize=16;strokeColor=#dddddd;whiteSpace=wrap;" parent="3d76a8aef4d5c911-11" vertex="1">
          <mxGeometry y="1" width="80" height="40" relative="1" as="geometry">
            <mxPoint x="100" y="-60" as="offset" />
          </mxGeometry>
        </mxCell>
        <mxCell id="3d76a8aef4d5c911-18" value="" style="html=1;shadow=0;dashed=0;shape=mxgraph.bootstrap.rrect;rSize=5;strokeColor=#FFD966;;align=left;spacingLeft=10;fontSize=16;whiteSpace=wrap;rounded=0;fillColor=none;strokeWidth=1;" parent="1" vertex="1">
          <mxGeometry x="40" y="150" width="800" height="80" as="geometry" />
        </mxCell>
        <mxCell id="3d76a8aef4d5c911-28" value="Message Type" style="html=1;shadow=0;dashed=0;shape=mxgraph.bootstrap.rect;strokeColor=none;fillColor=none;fontColor=#999999;align=left;spacingLeft=5;whiteSpace=wrap;rounded=0;" parent="1" vertex="1">
          <mxGeometry x="40" y="570" width="200" height="20" as="geometry" />
        </mxCell>
        <mxCell id="3d76a8aef4d5c911-29" value="Email + Push" style="html=1;shadow=0;dashed=0;shape=mxgraph.bootstrap.rrect;rSize=5;strokeColor=#dddddd;align=left;spacingLeft=10;fontSize=16;whiteSpace=wrap;rounded=0;" parent="1" vertex="1">
          <mxGeometry x="40" y="590" width="390" height="40" as="geometry" />
        </mxCell>
        <mxCell id="3d76a8aef4d5c911-30" value="" style="shape=triangle;strokeColor=none;fillColor=#000000;direction=south;rounded=0;shadow=1;fontSize=12;fontColor=#000000;align=center;html=1;" parent="1" vertex="1">
          <mxGeometry x="410" y="607" width="10" height="5" as="geometry" />
        </mxCell>
        <mxCell id="3d76a8aef4d5c911-31" value="Tap target" style="html=1;shadow=0;dashed=0;shape=mxgraph.bootstrap.rect;strokeColor=none;fillColor=none;fontColor=#999999;align=left;spacingLeft=5;whiteSpace=wrap;rounded=0;" parent="1" vertex="1">
          <mxGeometry x="450" y="570" width="200" height="20" as="geometry" />
        </mxCell>
        <mxCell id="3d76a8aef4d5c911-32" value="Profile Screen" style="html=1;shadow=0;dashed=0;shape=mxgraph.bootstrap.rrect;rSize=5;strokeColor=#dddddd;align=left;spacingLeft=10;fontSize=16;whiteSpace=wrap;rounded=0;" parent="1" vertex="1">
          <mxGeometry x="450" y="590" width="390" height="40" as="geometry" />
        </mxCell>
        <mxCell id="3d76a8aef4d5c911-33" value="" style="shape=triangle;strokeColor=none;fillColor=#000000;direction=south;rounded=0;shadow=1;fontSize=12;fontColor=#000000;align=center;html=1;" parent="1" vertex="1">
          <mxGeometry x="820" y="607" width="10" height="5" as="geometry" />
        </mxCell>
        <mxCell id="3d76a8aef4d5c911-34" value="Send to Group" style="html=1;shadow=0;dashed=0;shape=mxgraph.bootstrap.rect;strokeColor=none;fillColor=none;fontColor=#999999;align=left;spacingLeft=5;whiteSpace=wrap;rounded=0;" parent="1" vertex="1">
          <mxGeometry x="40" y="650" width="200" height="20" as="geometry" />
        </mxCell>
        <mxCell id="3d76a8aef4d5c911-35" value="Top Management" style="html=1;shadow=0;dashed=0;shape=mxgraph.bootstrap.checkbox;fontSize=12;strokeColor=#999999;align=left;labelPosition=right;spacingLeft=5;rounded=0;" parent="1" vertex="1">
          <mxGeometry x="50" y="673" width="14" height="14" as="geometry" />
        </mxCell>
        <mxCell id="3d76a8aef4d5c911-36" value="Marketing Department" style="html=1;shadow=0;dashed=0;shape=mxgraph.bootstrap.rrect;fontSize=12;rSize=3;strokeColor=#999999;align=left;labelPosition=right;spacingLeft=5;rounded=0;" parent="1" vertex="1">
          <mxGeometry x="50" y="693" width="14" height="14" as="geometry" />
        </mxCell>
        <mxCell id="3d76a8aef4d5c911-37" value="Design Department" style="html=1;shadow=0;dashed=0;shape=mxgraph.bootstrap.checkbox;fontSize=12;strokeColor=#999999;align=left;labelPosition=right;spacingLeft=5;rounded=0;" parent="1" vertex="1">
          <mxGeometry x="50" y="713" width="14" height="14" as="geometry" />
        </mxCell>
        <mxCell id="3d76a8aef4d5c911-38" value="Financial Department" style="html=1;shadow=0;dashed=0;shape=mxgraph.bootstrap.rrect;fontSize=12;rSize=3;strokeColor=#999999;align=left;labelPosition=right;spacingLeft=5;rounded=0;" parent="1" vertex="1">
          <mxGeometry x="50" y="733" width="14" height="14" as="geometry" />
        </mxCell>
        <mxCell id="3d76a8aef4d5c911-39" value="Supply Department" style="html=1;shadow=0;dashed=0;shape=mxgraph.bootstrap.rrect;fontSize=12;rSize=3;strokeColor=#999999;align=left;labelPosition=right;spacingLeft=5;rounded=0;" parent="1" vertex="1">
          <mxGeometry x="50" y="753" width="14" height="14" as="geometry" />
        </mxCell>
        <mxCell id="3d76a8aef4d5c911-40" value="Set Type" style="html=1;shadow=0;dashed=0;shape=mxgraph.bootstrap.rect;strokeColor=none;fillColor=none;fontColor=#999999;align=left;spacingLeft=5;whiteSpace=wrap;rounded=0;" parent="1" vertex="1">
          <mxGeometry x="450" y="650" width="200" height="20" as="geometry" />
        </mxCell>
        <mxCell id="3d76a8aef4d5c911-41" value="" style="shape=ellipse;dashed=0;strokeColor=#999999;fillColor=#ffffff;html=1;rounded=0;shadow=1;fontSize=12;fontColor=#000000;align=center;" parent="1" vertex="1">
          <mxGeometry x="460" y="673" width="14" height="14" as="geometry" />
        </mxCell>
        <mxCell id="3d76a8aef4d5c911-42" value="News" style="html=1;shadow=0;dashed=0;shape=mxgraph.bootstrap.rrect;align=center;rSize=3;strokeColor=none;fillColor=#58B957;fontColor=#ffffff;fontStyle=1;fontSize=10;whiteSpace=wrap;rounded=0;" parent="1" vertex="1">
          <mxGeometry x="480" y="673" width="40" height="14" as="geometry" />
        </mxCell>
        <mxCell id="3d76a8aef4d5c911-43" value="" style="html=1;shadow=0;dashed=0;shape=mxgraph.bootstrap.radioButton;strokeColor=#999999;fillColor=#ffffff;rounded=0;fontSize=12;fontColor=#000000;align=center;" parent="1" vertex="1">
          <mxGeometry x="460" y="693" width="14" height="14" as="geometry" />
        </mxCell>
        <mxCell id="3d76a8aef4d5c911-44" value="Reports" style="html=1;shadow=0;dashed=0;shape=mxgraph.bootstrap.rrect;align=center;rSize=3;strokeColor=none;fillColor=#55BFE0;fontColor=#ffffff;fontStyle=1;fontSize=10;whiteSpace=wrap;rounded=0;" parent="1" vertex="1">
          <mxGeometry x="480" y="693" width="50" height="14" as="geometry" />
        </mxCell>
        <mxCell id="3d76a8aef4d5c911-45" value="" style="shape=ellipse;dashed=0;strokeColor=#999999;fillColor=#ffffff;html=1;rounded=0;shadow=1;fontSize=12;fontColor=#000000;align=center;" parent="1" vertex="1">
          <mxGeometry x="460" y="713" width="14" height="14" as="geometry" />
        </mxCell>
        <mxCell id="3d76a8aef4d5c911-46" value="Documents" style="html=1;shadow=0;dashed=0;shape=mxgraph.bootstrap.rrect;align=center;rSize=3;strokeColor=none;fillColor=#EFAC43;fontColor=#ffffff;fontStyle=1;fontSize=10;whiteSpace=wrap;rounded=0;" parent="1" vertex="1">
          <mxGeometry x="480" y="713" width="70" height="14" as="geometry" />
        </mxCell>
        <mxCell id="3d76a8aef4d5c911-47" value="" style="shape=ellipse;dashed=0;strokeColor=#999999;fillColor=#ffffff;html=1;rounded=0;shadow=1;fontSize=12;fontColor=#000000;align=center;" parent="1" vertex="1">
          <mxGeometry x="460" y="733" width="14" height="14" as="geometry" />
        </mxCell>
        <mxCell id="3d76a8aef4d5c911-48" value="Media" style="html=1;shadow=0;dashed=0;shape=mxgraph.bootstrap.rrect;align=center;rSize=3;strokeColor=none;fillColor=#3D8BCD;fontColor=#ffffff;fontStyle=1;fontSize=10;whiteSpace=wrap;rounded=0;" parent="1" vertex="1">
          <mxGeometry x="480" y="733" width="40" height="14" as="geometry" />
        </mxCell>
        <mxCell id="3d76a8aef4d5c911-49" value="" style="shape=ellipse;dashed=0;strokeColor=#999999;fillColor=#ffffff;html=1;rounded=0;shadow=1;fontSize=12;fontColor=#000000;align=center;" parent="1" vertex="1">
          <mxGeometry x="460" y="753" width="14" height="14" as="geometry" />
        </mxCell>
        <mxCell id="3d76a8aef4d5c911-50" value="Text" style="html=1;shadow=0;dashed=0;shape=mxgraph.bootstrap.rrect;align=center;rSize=3;strokeColor=none;fillColor=#999999;fontColor=#ffffff;fontStyle=1;fontSize=10;whiteSpace=wrap;rounded=0;" parent="1" vertex="1">
          <mxGeometry x="480" y="753" width="30" height="14" as="geometry" />
        </mxCell>
        <mxCell id="3d76a8aef4d5c911-51" value="Save Template" style="html=1;shadow=0;dashed=0;shape=mxgraph.bootstrap.rrect;align=center;rSize=5;strokeColor=none;fillColor=#3D8BCD;fontColor=#ffffff;fontSize=16;whiteSpace=wrap;rounded=0;" parent="1" vertex="1">
          <mxGeometry x="40" y="810" width="150" height="40" as="geometry" />
        </mxCell>
        <mxCell id="3d76a8aef4d5c911-52" value="Cancel" style="html=1;shadow=0;dashed=0;shape=mxgraph.bootstrap.rrect;align=center;rSize=5;strokeColor=#dddddd;fontSize=16;whiteSpace=wrap;rounded=0;" parent="1" vertex="1">
          <mxGeometry x="210" y="810" width="100" height="40" as="geometry" />
        </mxCell>
        <mxCell id="3d76a8aef4d5c911-53" value="Delete Template" style="html=1;shadow=0;dashed=0;shape=mxgraph.bootstrap.rrect;align=center;rSize=5;strokeColor=none;fillColor=#DB524C;fontColor=#ffffff;fontSize=16;whiteSpace=wrap;rounded=0;" parent="1" vertex="1">
          <mxGeometry x="670" y="810" width="170" height="40" as="geometry" />
        </mxCell>
        <mxCell id="3d76a8aef4d5c911-54" value="" style="html=1;shadow=0;dashed=0;shape=mxgraph.bootstrap.rrect;rSize=5;strokeColor=#dddddd;rounded=0;fontSize=12;align=center;" parent="1" vertex="1">
          <mxGeometry x="860" y="580" width="330" height="400" as="geometry" />
        </mxCell>
        <mxCell id="3d76a8aef4d5c911-55" value="320x200" style="shape=rect;fontSize=24;fillColor=#f0f0f0;strokeColor=none;fontColor=#999999;whiteSpace=wrap;" parent="3d76a8aef4d5c911-54" vertex="1">
          <mxGeometry x="5" y="5" width="320" height="200" as="geometry" />
        </mxCell>
        <mxCell id="3d76a8aef4d5c911-56" value="Thumbnail label" style="html=1;shadow=0;dashed=0;shape=mxgraph.bootstrap.anchor;fontSize=26;align=left;whiteSpace=wrap;" parent="3d76a8aef4d5c911-54" vertex="1">
          <mxGeometry x="15" y="220" width="300" height="40" as="geometry" />
        </mxCell>
        <mxCell id="3d76a8aef4d5c911-57" value="Cras justo odio, dapibus ac facilisis in, egestas eget quam. Donec id elit non mi porta gravida at eget metus. Nullam id dolor id nibh ultricies vehicula ut id elit." style="html=1;shadow=0;dashed=0;shape=mxgraph.bootstrap.anchor;strokeColor=#dddddd;whiteSpace=wrap;align=left;verticalAlign=top;fontSize=14;whiteSpace=wrap;" parent="3d76a8aef4d5c911-54" vertex="1">
          <mxGeometry x="15" y="260" width="300" height="80" as="geometry" />
        </mxCell>
        <mxCell id="3d76a8aef4d5c911-58" value="Button" style="html=1;shadow=0;dashed=0;shape=mxgraph.bootstrap.rrect;rSize=5;fontSize=16;fillColor=#3D8BCD;strokeColor=none;fontColor=#ffffff;whiteSpace=wrap;" parent="3d76a8aef4d5c911-54" vertex="1">
          <mxGeometry y="1" width="80" height="40" relative="1" as="geometry">
            <mxPoint x="15" y="-60" as="offset" />
          </mxGeometry>
        </mxCell>
        <mxCell id="3d76a8aef4d5c911-59" value="Button" style="html=1;shadow=0;dashed=0;shape=mxgraph.bootstrap.rrect;rSize=5;fontSize=16;strokeColor=#dddddd;whiteSpace=wrap;" parent="3d76a8aef4d5c911-54" vertex="1">
          <mxGeometry y="1" width="80" height="40" relative="1" as="geometry">
            <mxPoint x="100" y="-60" as="offset" />
          </mxGeometry>
        </mxCell>
        <mxCell id="3d76a8aef4d5c911-17" value="Employee ID" style="html=1;shadow=0;dashed=0;shape=mxgraph.bootstrap.rect;strokeColor=none;fillColor=none;fontColor=#E6E6E6;align=left;spacingLeft=5;whiteSpace=wrap;rounded=0;" parent="1" vertex="1">
          <mxGeometry x="140" y="170" width="90" height="20" as="geometry" />
        </mxCell>
        <mxCell id="BayDQLT54bfVyeQ3MigJ-3" value="User Name" style="text;html=1;align=center;verticalAlign=middle;whiteSpace=wrap;rounded=0;fontSize=16;fontColor=#FFFFFF;" parent="1" vertex="1">
          <mxGeometry x="50" y="165" width="90" height="30" as="geometry" />
        </mxCell>
        <mxCell id="BayDQLT54bfVyeQ3MigJ-4" value="Original: 6/25/20224 2:34 pm" style="html=1;shadow=0;dashed=0;shape=mxgraph.bootstrap.rect;strokeColor=none;fillColor=none;fontColor=#E6E6E6;align=left;spacingLeft=5;whiteSpace=wrap;rounded=0;" parent="1" vertex="1">
          <mxGeometry x="50" y="195" width="170" height="20" as="geometry" />
        </mxCell>
        <mxCell id="BayDQLT54bfVyeQ3MigJ-5" value="JT: 24" style="text;html=1;align=center;verticalAlign=middle;whiteSpace=wrap;rounded=1;fontSize=12;fontColor=#FF9933;fontStyle=1;fillColor=#2B2B2B;strokeColor=none;absoluteArcSize=0;arcSize=50;imageHeight=24;" parent="1" vertex="1">
          <mxGeometry x="240" y="190" width="50" height="30" as="geometry" />
        </mxCell>
        <mxCell id="BayDQLT54bfVyeQ3MigJ-6" value="6/25/2024 8:00 am" style="text;html=1;align=center;verticalAlign=middle;whiteSpace=wrap;rounded=0;fontSize=16;fontColor=#FF9933;fontStyle=1" parent="1" vertex="1">
          <mxGeometry x="240" y="165" width="140" height="30" as="geometry" />
        </mxCell>
        <mxCell id="BayDQLT54bfVyeQ3MigJ-7" value="JS: 24" style="text;html=1;align=center;verticalAlign=middle;whiteSpace=wrap;rounded=1;fontSize=12;fontColor=#FF9933;fontStyle=1;fillColor=#2B2B2B;strokeColor=none;absoluteArcSize=0;arcSize=50;imageHeight=24;" parent="1" vertex="1">
          <mxGeometry x="295" y="190" width="50" height="30" as="geometry" />
        </mxCell>
        <mxCell id="BayDQLT54bfVyeQ3MigJ-8" value="ET: 1" style="text;html=1;align=center;verticalAlign=middle;whiteSpace=wrap;rounded=1;fontSize=12;fontColor=#FF9933;fontStyle=1;fillColor=#2B2B2B;strokeColor=none;absoluteArcSize=0;arcSize=50;imageHeight=24;" parent="1" vertex="1">
          <mxGeometry x="350" y="190" width="50" height="30" as="geometry" />
        </mxCell>
        <mxCell id="BayDQLT54bfVyeQ3MigJ-9" value="Accept" style="html=1;shadow=0;dashed=0;shape=mxgraph.bootstrap.rrect;rSize=5;fontSize=16;fillColor=#3D8BCD;strokeColor=none;fontColor=#ffffff;whiteSpace=wrap;" parent="1" vertex="1">
          <mxGeometry x="420" y="170" width="80" height="40" as="geometry" />
        </mxCell>
        <mxCell id="BayDQLT54bfVyeQ3MigJ-10" value="Reject" style="html=1;shadow=0;dashed=0;shape=mxgraph.bootstrap.rrect;rSize=5;fontSize=16;fillColor=#FF6666;strokeColor=none;fontColor=#ffffff;whiteSpace=wrap;" parent="1" vertex="1">
          <mxGeometry x="510" y="170" width="80" height="40" as="geometry" />
        </mxCell>
        <mxCell id="BayDQLT54bfVyeQ3MigJ-21" value="" style="html=1;shadow=0;dashed=0;shape=mxgraph.bootstrap.rrect;rSize=5;strokeColor=#FFD966;;align=left;spacingLeft=10;fontSize=16;whiteSpace=wrap;rounded=0;fillColor=none;strokeWidth=1;" parent="1" vertex="1">
          <mxGeometry x="40" y="250" width="800" height="120" as="geometry" />
        </mxCell>
        <mxCell id="BayDQLT54bfVyeQ3MigJ-22" value="Employee ID" style="html=1;shadow=0;dashed=0;shape=mxgraph.bootstrap.rect;strokeColor=none;fillColor=none;fontColor=#E6E6E6;align=left;spacingLeft=5;whiteSpace=wrap;rounded=0;" parent="1" vertex="1">
          <mxGeometry x="140" y="270" width="90" height="20" as="geometry" />
        </mxCell>
        <mxCell id="BayDQLT54bfVyeQ3MigJ-23" value="User Name" style="text;html=1;align=center;verticalAlign=middle;whiteSpace=wrap;rounded=0;fontSize=16;fontColor=#FFFFFF;" parent="1" vertex="1">
          <mxGeometry x="50" y="265" width="90" height="30" as="geometry" />
        </mxCell>
        <mxCell id="BayDQLT54bfVyeQ3MigJ-24" value="Created: 6/25/20224 2:34 pm" style="html=1;shadow=0;dashed=0;shape=mxgraph.bootstrap.rect;strokeColor=none;fillColor=none;fontColor=#E6E6E6;align=left;spacingLeft=5;whiteSpace=wrap;rounded=0;" parent="1" vertex="1">
          <mxGeometry x="50" y="295" width="170" height="20" as="geometry" />
        </mxCell>
        <mxCell id="BayDQLT54bfVyeQ3MigJ-25" value="Job Type: 24" style="text;html=1;align=left;verticalAlign=middle;whiteSpace=wrap;rounded=1;fontSize=12;fontColor=#FF9933;fontStyle=1;fillColor=none;strokeColor=none;absoluteArcSize=0;arcSize=50;imageHeight=24;" parent="1" vertex="1">
          <mxGeometry x="240" y="290" width="140" height="30" as="geometry" />
        </mxCell>
        <mxCell id="BayDQLT54bfVyeQ3MigJ-26" value="6/25/2024 8:00 am" style="text;html=1;align=center;verticalAlign=middle;whiteSpace=wrap;rounded=0;fontSize=16;fontColor=#FF9933;fontStyle=1" parent="1" vertex="1">
          <mxGeometry x="240" y="265" width="140" height="30" as="geometry" />
        </mxCell>
        <mxCell id="BayDQLT54bfVyeQ3MigJ-29" value="Accept" style="html=1;shadow=0;dashed=0;shape=mxgraph.bootstrap.rrect;rSize=5;fontSize=16;fillColor=#3D8BCD;strokeColor=none;fontColor=#ffffff;whiteSpace=wrap;" parent="1" vertex="1">
          <mxGeometry x="420" y="270" width="80" height="40" as="geometry" />
        </mxCell>
        <mxCell id="BayDQLT54bfVyeQ3MigJ-30" value="Reject" style="html=1;shadow=0;dashed=0;shape=mxgraph.bootstrap.rrect;rSize=5;fontSize=16;fillColor=#FF6666;strokeColor=none;fontColor=#ffffff;whiteSpace=wrap;" parent="1" vertex="1">
          <mxGeometry x="510" y="270" width="80" height="40" as="geometry" />
        </mxCell>
        <mxCell id="BayDQLT54bfVyeQ3MigJ-31" value="Job Step: 24" style="text;html=1;align=left;verticalAlign=middle;whiteSpace=wrap;rounded=1;fontSize=12;fontColor=#FF9933;fontStyle=1;fillColor=none;strokeColor=none;absoluteArcSize=0;arcSize=50;imageHeight=24;" parent="1" vertex="1">
          <mxGeometry x="240" y="310" width="140" height="30" as="geometry" />
        </mxCell>
        <mxCell id="BayDQLT54bfVyeQ3MigJ-32" value="Entry Type: 1" style="text;html=1;align=left;verticalAlign=middle;whiteSpace=wrap;rounded=1;fontSize=12;fontColor=#FF9933;fontStyle=1;fillColor=none;strokeColor=none;absoluteArcSize=0;arcSize=50;imageHeight=24;" parent="1" vertex="1">
          <mxGeometry x="240" y="331" width="140" height="30" as="geometry" />
        </mxCell>
        <mxCell id="E9gR37441JlUVPNxUHQZ-1" value="" style="html=1;shadow=0;dashed=0;shape=mxgraph.bootstrap.rrect;rSize=5;strokeColor=#FFD966;;align=left;spacingLeft=10;fontSize=16;whiteSpace=wrap;rounded=0;fillColor=none;strokeWidth=1;" parent="1" vertex="1">
          <mxGeometry x="40" y="387" width="800" height="120" as="geometry" />
        </mxCell>
        <mxCell id="E9gR37441JlUVPNxUHQZ-2" value="Employee ID" style="html=1;shadow=0;dashed=0;shape=mxgraph.bootstrap.rect;strokeColor=none;fillColor=none;fontColor=#E6E6E6;align=left;spacingLeft=5;whiteSpace=wrap;rounded=0;" parent="1" vertex="1">
          <mxGeometry x="140" y="407" width="90" height="20" as="geometry" />
        </mxCell>
        <mxCell id="E9gR37441JlUVPNxUHQZ-3" value="User Name" style="text;html=1;align=center;verticalAlign=middle;whiteSpace=wrap;rounded=0;fontSize=16;fontColor=#FFFFFF;" parent="1" vertex="1">
          <mxGeometry x="50" y="402" width="90" height="30" as="geometry" />
        </mxCell>
        <mxCell id="E9gR37441JlUVPNxUHQZ-4" value="Original: 6/25/20224 2:34 pm" style="html=1;shadow=0;dashed=0;shape=mxgraph.bootstrap.rect;strokeColor=none;fillColor=none;fontColor=#E6E6E6;align=left;spacingLeft=5;whiteSpace=wrap;rounded=0;" parent="1" vertex="1">
          <mxGeometry x="50" y="432" width="170" height="20" as="geometry" />
        </mxCell>
        <mxCell id="E9gR37441JlUVPNxUHQZ-5" value="Job Type: (24) Sweeper Operator" style="text;html=1;align=center;verticalAlign=middle;whiteSpace=wrap;rounded=1;fontSize=12;fontColor=#FF9933;fontStyle=1;fillColor=#2B2B2B;strokeColor=none;absoluteArcSize=0;arcSize=50;imageHeight=24;" parent="1" vertex="1">
          <mxGeometry x="54" y="456" width="196" height="30" as="geometry" />
        </mxCell>
        <mxCell id="E9gR37441JlUVPNxUHQZ-6" value="6/25/2024 8:00 am" style="text;html=1;align=center;verticalAlign=middle;whiteSpace=wrap;rounded=0;fontSize=16;fontColor=#FF9933;fontStyle=1" parent="1" vertex="1">
          <mxGeometry x="240" y="426" width="140" height="30" as="geometry" />
        </mxCell>
        <mxCell id="E9gR37441JlUVPNxUHQZ-7" value="Accept" style="html=1;shadow=0;dashed=0;shape=mxgraph.bootstrap.rrect;rSize=5;fontSize=16;fillColor=#3D8BCD;strokeColor=none;fontColor=#ffffff;whiteSpace=wrap;" parent="1" vertex="1">
          <mxGeometry x="420" y="407" width="80" height="40" as="geometry" />
        </mxCell>
        <mxCell id="E9gR37441JlUVPNxUHQZ-8" value="Reject" style="html=1;shadow=0;dashed=0;shape=mxgraph.bootstrap.rrect;rSize=5;fontSize=16;fillColor=#FF6666;strokeColor=none;fontColor=#ffffff;whiteSpace=wrap;" parent="1" vertex="1">
          <mxGeometry x="510" y="407" width="80" height="40" as="geometry" />
        </mxCell>
        <mxCell id="E9gR37441JlUVPNxUHQZ-9" value="Job Step: (24) Something or other" style="text;html=1;align=center;verticalAlign=middle;whiteSpace=wrap;rounded=1;fontSize=12;fontColor=#FF9933;fontStyle=1;fillColor=#2B2B2B;strokeColor=none;absoluteArcSize=0;arcSize=50;imageHeight=24;" parent="1" vertex="1">
          <mxGeometry x="258" y="456" width="207" height="30" as="geometry" />
        </mxCell>
        <mxCell id="E9gR37441JlUVPNxUHQZ-10" value="Entry Type: (1) Regular Time" style="text;html=1;align=center;verticalAlign=middle;whiteSpace=wrap;rounded=1;fontSize=12;fontColor=#FF9933;fontStyle=1;fillColor=#2B2B2B;strokeColor=none;absoluteArcSize=0;arcSize=50;imageHeight=24;" parent="1" vertex="1">
          <mxGeometry x="474" y="456" width="180" height="30" as="geometry" />
        </mxCell>
        <mxCell id="jms1xP2NTC-_Q-YmCjxF-1" value="Requested Correction" style="html=1;shadow=0;dashed=0;shape=mxgraph.bootstrap.rect;strokeColor=none;fillColor=none;fontColor=#FF9933;align=left;spacingLeft=5;whiteSpace=wrap;rounded=0;" parent="1" vertex="1">
          <mxGeometry x="240" y="407" width="170" height="20" as="geometry" />
        </mxCell>
        <mxCell id="jms1xP2NTC-_Q-YmCjxF-2" value="Requested Correction" style="html=1;shadow=0;dashed=0;shape=mxgraph.bootstrap.rect;strokeColor=none;fillColor=none;fontColor=#FF9933;align=left;spacingLeft=5;whiteSpace=wrap;rounded=0;" parent="1" vertex="1">
          <mxGeometry x="246" y="154" width="170" height="20" as="geometry" />
        </mxCell>
      </root>
    </mxGraphModel>
  </diagram>
</mxfile>
